<mxfile host="app.diagrams.net" agent="Mozilla/5.0 (X11; Linux x86_64; rv:128.0) Gecko/20100101 Firefox/128.0" version="26.1.1">
  <diagram name="Page-1" id="Hmsm8Ccvkjc07kd9PvDm">
    <mxGraphModel dx="624" dy="659" grid="1" gridSize="10" guides="1" tooltips="1" connect="1" arrows="1" fold="1" page="1" pageScale="1" pageWidth="850" pageHeight="1100" math="0" shadow="0">
      <root>
        <mxCell id="0" />
        <mxCell id="1" parent="0" />
        <mxCell id="F-Zx5ggBuBhFKKIpAHYp-4" style="edgeStyle=orthogonalEdgeStyle;rounded=0;orthogonalLoop=1;jettySize=auto;html=1;entryX=0.5;entryY=0;entryDx=0;entryDy=0;" edge="1" parent="1" source="F-Zx5ggBuBhFKKIpAHYp-2" target="F-Zx5ggBuBhFKKIpAHYp-3">
          <mxGeometry relative="1" as="geometry" />
        </mxCell>
        <mxCell id="F-Zx5ggBuBhFKKIpAHYp-2" value="void print_matriz(double* matriz, size_t n)" style="shape=step;perimeter=stepPerimeter;whiteSpace=wrap;html=1;fixedSize=1;" vertex="1" parent="1">
          <mxGeometry x="60" y="30" width="300" height="50" as="geometry" />
        </mxCell>
        <mxCell id="F-Zx5ggBuBhFKKIpAHYp-12" style="edgeStyle=orthogonalEdgeStyle;rounded=0;orthogonalLoop=1;jettySize=auto;html=1;" edge="1" parent="1" source="F-Zx5ggBuBhFKKIpAHYp-3" target="F-Zx5ggBuBhFKKIpAHYp-11">
          <mxGeometry relative="1" as="geometry" />
        </mxCell>
        <mxCell id="F-Zx5ggBuBhFKKIpAHYp-3" value="int i=0;" style="rounded=0;whiteSpace=wrap;html=1;" vertex="1" parent="1">
          <mxGeometry x="160" y="120" width="100" height="40" as="geometry" />
        </mxCell>
        <mxCell id="F-Zx5ggBuBhFKKIpAHYp-8" style="edgeStyle=orthogonalEdgeStyle;rounded=0;orthogonalLoop=1;jettySize=auto;html=1;entryX=0.5;entryY=0;entryDx=0;entryDy=0;" edge="1" parent="1" source="F-Zx5ggBuBhFKKIpAHYp-5" target="F-Zx5ggBuBhFKKIpAHYp-7">
          <mxGeometry relative="1" as="geometry" />
        </mxCell>
        <mxCell id="F-Zx5ggBuBhFKKIpAHYp-24" style="edgeStyle=orthogonalEdgeStyle;rounded=0;orthogonalLoop=1;jettySize=auto;html=1;entryX=0;entryY=0.5;entryDx=0;entryDy=0;" edge="1" parent="1" source="F-Zx5ggBuBhFKKIpAHYp-5" target="F-Zx5ggBuBhFKKIpAHYp-26">
          <mxGeometry relative="1" as="geometry">
            <mxPoint x="290" y="242.9999999999999" as="targetPoint" />
          </mxGeometry>
        </mxCell>
        <mxCell id="F-Zx5ggBuBhFKKIpAHYp-5" value="i &amp;lt; n" style="rhombus;whiteSpace=wrap;html=1;" vertex="1" parent="1">
          <mxGeometry x="170" y="223" width="80" height="40" as="geometry" />
        </mxCell>
        <mxCell id="F-Zx5ggBuBhFKKIpAHYp-15" style="edgeStyle=orthogonalEdgeStyle;rounded=0;orthogonalLoop=1;jettySize=auto;html=1;entryX=0.5;entryY=0;entryDx=0;entryDy=0;" edge="1" parent="1" source="F-Zx5ggBuBhFKKIpAHYp-7" target="F-Zx5ggBuBhFKKIpAHYp-14">
          <mxGeometry relative="1" as="geometry" />
        </mxCell>
        <mxCell id="F-Zx5ggBuBhFKKIpAHYp-7" value="int j=0;" style="rounded=0;whiteSpace=wrap;html=1;" vertex="1" parent="1">
          <mxGeometry x="160" y="288" width="100" height="40" as="geometry" />
        </mxCell>
        <mxCell id="F-Zx5ggBuBhFKKIpAHYp-18" style="edgeStyle=orthogonalEdgeStyle;rounded=0;orthogonalLoop=1;jettySize=auto;html=1;entryX=0.5;entryY=0;entryDx=0;entryDy=0;" edge="1" parent="1" source="F-Zx5ggBuBhFKKIpAHYp-9" target="F-Zx5ggBuBhFKKIpAHYp-17">
          <mxGeometry relative="1" as="geometry" />
        </mxCell>
        <mxCell id="F-Zx5ggBuBhFKKIpAHYp-36" style="edgeStyle=orthogonalEdgeStyle;rounded=0;orthogonalLoop=1;jettySize=auto;html=1;entryX=1;entryY=0.5;entryDx=0;entryDy=0;" edge="1" parent="1" source="F-Zx5ggBuBhFKKIpAHYp-9" target="F-Zx5ggBuBhFKKIpAHYp-35">
          <mxGeometry relative="1" as="geometry" />
        </mxCell>
        <mxCell id="F-Zx5ggBuBhFKKIpAHYp-9" value="j &amp;lt; n" style="rhombus;whiteSpace=wrap;html=1;" vertex="1" parent="1">
          <mxGeometry x="170" y="390" width="80" height="40" as="geometry" />
        </mxCell>
        <mxCell id="F-Zx5ggBuBhFKKIpAHYp-13" style="edgeStyle=orthogonalEdgeStyle;rounded=0;orthogonalLoop=1;jettySize=auto;html=1;" edge="1" parent="1" source="F-Zx5ggBuBhFKKIpAHYp-11" target="F-Zx5ggBuBhFKKIpAHYp-5">
          <mxGeometry relative="1" as="geometry" />
        </mxCell>
        <mxCell id="F-Zx5ggBuBhFKKIpAHYp-11" value="" style="ellipse;whiteSpace=wrap;html=1;aspect=fixed;" vertex="1" parent="1">
          <mxGeometry x="200" y="180" width="20" height="20" as="geometry" />
        </mxCell>
        <mxCell id="F-Zx5ggBuBhFKKIpAHYp-16" style="edgeStyle=orthogonalEdgeStyle;rounded=0;orthogonalLoop=1;jettySize=auto;html=1;entryX=0.5;entryY=0;entryDx=0;entryDy=0;" edge="1" parent="1" source="F-Zx5ggBuBhFKKIpAHYp-14" target="F-Zx5ggBuBhFKKIpAHYp-9">
          <mxGeometry relative="1" as="geometry" />
        </mxCell>
        <mxCell id="F-Zx5ggBuBhFKKIpAHYp-14" value="" style="ellipse;whiteSpace=wrap;html=1;aspect=fixed;" vertex="1" parent="1">
          <mxGeometry x="200" y="350" width="20" height="20" as="geometry" />
        </mxCell>
        <mxCell id="F-Zx5ggBuBhFKKIpAHYp-33" style="edgeStyle=orthogonalEdgeStyle;rounded=0;orthogonalLoop=1;jettySize=auto;html=1;entryX=0.5;entryY=0;entryDx=0;entryDy=0;" edge="1" parent="1" source="F-Zx5ggBuBhFKKIpAHYp-17" target="F-Zx5ggBuBhFKKIpAHYp-32">
          <mxGeometry relative="1" as="geometry" />
        </mxCell>
        <mxCell id="F-Zx5ggBuBhFKKIpAHYp-17" value="matriz[i*n+j]" style="shape=parallelogram;perimeter=parallelogramPerimeter;whiteSpace=wrap;html=1;fixedSize=1;" vertex="1" parent="1">
          <mxGeometry x="140" y="460" width="140" height="40" as="geometry" />
        </mxCell>
        <mxCell id="F-Zx5ggBuBhFKKIpAHYp-20" value="V" style="text;html=1;align=center;verticalAlign=middle;whiteSpace=wrap;rounded=0;" vertex="1" parent="1">
          <mxGeometry x="200" y="430" width="60" height="30" as="geometry" />
        </mxCell>
        <mxCell id="F-Zx5ggBuBhFKKIpAHYp-22" value="F" style="text;html=1;align=center;verticalAlign=middle;whiteSpace=wrap;rounded=0;" vertex="1" parent="1">
          <mxGeometry x="130" y="380" width="60" height="30" as="geometry" />
        </mxCell>
        <mxCell id="F-Zx5ggBuBhFKKIpAHYp-25" value="F" style="text;html=1;align=center;verticalAlign=middle;whiteSpace=wrap;rounded=0;" vertex="1" parent="1">
          <mxGeometry x="240" y="217" width="52" height="30" as="geometry" />
        </mxCell>
        <mxCell id="F-Zx5ggBuBhFKKIpAHYp-26" value="FIN" style="ellipse;whiteSpace=wrap;html=1;" vertex="1" parent="1">
          <mxGeometry x="290" y="217" width="60" height="52" as="geometry" />
        </mxCell>
        <mxCell id="F-Zx5ggBuBhFKKIpAHYp-27" value="V" style="text;html=1;align=center;verticalAlign=middle;whiteSpace=wrap;rounded=0;" vertex="1" parent="1">
          <mxGeometry x="200" y="258" width="60" height="30" as="geometry" />
        </mxCell>
        <mxCell id="F-Zx5ggBuBhFKKIpAHYp-30" style="edgeStyle=orthogonalEdgeStyle;rounded=0;orthogonalLoop=1;jettySize=auto;html=1;" edge="1" parent="1">
          <mxGeometry relative="1" as="geometry">
            <mxPoint x="292" y="498" as="targetPoint" />
            <mxPoint x="262" y="498" as="sourcePoint" />
          </mxGeometry>
        </mxCell>
        <mxCell id="F-Zx5ggBuBhFKKIpAHYp-31" value="void construir_menor(double* matriz, size_t n, double* menor, size_t col)" style="shape=step;perimeter=stepPerimeter;whiteSpace=wrap;html=1;fixedSize=1;" vertex="1" parent="1">
          <mxGeometry x="430" y="30" width="440" height="50" as="geometry" />
        </mxCell>
        <mxCell id="F-Zx5ggBuBhFKKIpAHYp-34" style="edgeStyle=orthogonalEdgeStyle;rounded=0;orthogonalLoop=1;jettySize=auto;html=1;entryX=1;entryY=0.5;entryDx=0;entryDy=0;" edge="1" parent="1" source="F-Zx5ggBuBhFKKIpAHYp-32" target="F-Zx5ggBuBhFKKIpAHYp-14">
          <mxGeometry relative="1" as="geometry">
            <Array as="points">
              <mxPoint x="310" y="550" />
              <mxPoint x="310" y="360" />
            </Array>
          </mxGeometry>
        </mxCell>
        <mxCell id="F-Zx5ggBuBhFKKIpAHYp-32" value="++j;" style="rounded=0;whiteSpace=wrap;html=1;" vertex="1" parent="1">
          <mxGeometry x="165" y="535" width="90" height="30" as="geometry" />
        </mxCell>
        <mxCell id="F-Zx5ggBuBhFKKIpAHYp-37" style="edgeStyle=orthogonalEdgeStyle;rounded=0;orthogonalLoop=1;jettySize=auto;html=1;entryX=0;entryY=0.5;entryDx=0;entryDy=0;" edge="1" parent="1" source="F-Zx5ggBuBhFKKIpAHYp-35" target="F-Zx5ggBuBhFKKIpAHYp-11">
          <mxGeometry relative="1" as="geometry">
            <Array as="points">
              <mxPoint x="110" y="190" />
            </Array>
          </mxGeometry>
        </mxCell>
        <mxCell id="F-Zx5ggBuBhFKKIpAHYp-35" value="++i;" style="rounded=0;whiteSpace=wrap;html=1;" vertex="1" parent="1">
          <mxGeometry x="80" y="395" width="60" height="30" as="geometry" />
        </mxCell>
      </root>
    </mxGraphModel>
  </diagram>
</mxfile>
